%
M48
M72
T01C0.0157
T02C0.0276
T03C0.0354
T04C0.0591
T05C0.0787
T06C0.0827
%
T01
X6150Y2281
X5933Y2832
X7902Y3305
X11799Y5431
X10894Y6258
X10067Y6651
X9594Y6612
X9240Y6258
X7469Y6415
X8728Y7281
X10185Y7596
X12547Y6651
X13689Y6533
X16169Y6691
X16957Y5903
X14713Y5431
X17390Y3856
X14949Y2832
X20106Y4250
X20657Y4250
X20894Y3777
X21760Y4683
X23177Y4132
X23650Y4565
X25618Y3777
X27783Y3659
X29161Y4604
X29594Y5155
X30854Y4604
X32980Y4801
X33630Y4683
X33689Y5785
X31957Y5825
X31366Y6573
X32902Y7518
X32665Y8187
X31957Y8462
X32508Y9014
X31209Y9643
X31091Y10313
X30677Y10647
X29358Y10510
X28689Y10628
X26839Y10588
X26287Y11061
X26760Y11573
X26327Y12006
X24575Y11966
X23492Y11612
X24634Y11415
X26406Y12754
X26799Y13029
X27272Y12754
X28138Y13147
X28827Y12892
X29516Y13187
X30579Y13541
X30618Y12951
X29201Y12340
X28138Y12124
X28295Y11651
X28807Y11455
X30185Y11966
X31209Y12084
X32350Y12006
X32783Y12242
X34555Y11966
X35618Y11927
X37980Y12557
X38531Y11061
X36484Y9958
X35972Y10392
X35146Y9958
X32350Y10470
X30303Y11494
X28453Y9329
X29122Y8895
X28925Y7832
X27350Y7203
X25618Y8029
X25303Y7557
X23886Y6612
X24673Y6376
X25618Y6021
X23059Y6612
X22705Y5903
X22114Y5825
X22783Y3462
X22705Y2675
X23610Y2675
X25382Y1730
X27390Y1730
X29201Y2754
X30618Y2832
X31701Y2832
X32626Y2990
X34240Y3659
X35657Y3620
X36287Y3895
X36327Y5077
X36287Y6455
X38807Y6888
X38728Y8738
X34201Y13462
X34988Y14250
X36563Y14171
X35461Y15588
X32508Y16140
X32075Y15037
X31366Y14998
X30067Y15077
X29476Y15234
X28925Y15077
X28138Y15116
X27547Y15116
X26957Y15037
X28335Y15667
X25618Y15982
X24280Y16021
X21720Y14014
X21248Y13817
X22350Y13856
X22980Y13856
X23807Y13856
X23492Y13069
X24280Y13069
X26366Y13462
X27941Y13817
X28531Y13895
X32154Y14210
X24713Y9919
X23138Y9525
X21091Y8738
X21091Y8226
X20579Y8226
X20067Y8738
X20067Y9250
X20579Y9250
X18453Y8266
X15854Y7872
X14949Y8226
X15500Y8817
X13925Y9919
X14358Y10588
X13256Y10510
X12154Y11179
X11012Y10746
X9752Y10510
X9319Y10746
X11760Y9880
X11169Y9250
X7232Y7478
X4791Y6573
X5224Y9722
X5224Y10628
X3886Y11612
X7705Y12163
X9240Y12045
X10657Y12084
X11248Y12124
X12665Y12006
X13256Y12006
X14201Y12636
X14831Y12242
X16524Y12242
X17705Y11691
X16720Y11455
X15461Y10943
X19929Y12006
X20776Y11888
X20146Y13738
X18138Y14250
X17783Y13895
X16839Y14171
X9043Y14565
X7941Y14722
X7193Y15234
X4969Y14210
X4673Y15155
X29949Y1966
X32193Y1297
X33768Y1691
X36406Y2518
X37665Y2124
T02
X35500Y11021
X35500Y12990
T03
X38728Y9604
X38728Y7872
T04
X36917Y1966
X7862Y7478
T05
X2075Y9525
X2075Y14151
X19791Y15923
X39083Y14191
X39083Y3285
X19791Y1553
X2075Y3325
T06
X35736Y2045
M30
