G75*
G70*
%OFA0B0*%
%FSLAX24Y24*%
%IPPOS*%
%LPD*%
%AMOC8*
5,1,8,0,0,1.08239X$1,22.5*
%
%ADD10C,0.0671*%
%ADD11C,0.0070*%
%ADD12C,0.0907*%
%ADD13R,0.1458X0.0671*%
%ADD14R,0.0867X0.0395*%
%ADD15R,0.0867X0.0749*%
%ADD16C,0.0157*%
%ADD17R,0.0276X0.0157*%
%ADD18R,0.0157X0.0276*%
%ADD19C,0.0474*%
%ADD20R,0.0316X0.0395*%
%ADD21R,0.0395X0.0316*%
%ADD22R,0.0434X0.0513*%
%ADD23R,0.0513X0.0434*%
%ADD24R,0.1261X0.0867*%
%ADD25R,0.1143X0.0867*%
%ADD26R,0.1025X0.0867*%
%ADD27C,0.0867*%
%ADD28R,0.0513X0.0395*%
%ADD29R,0.0671X0.0474*%
%ADD30R,0.0474X0.0671*%
%ADD31R,0.0631X0.0395*%
%ADD32R,0.0395X0.0434*%
%ADD33R,0.0552X0.0790*%
%ADD34R,0.0631X0.0828*%
%ADD35R,0.0789X0.0552*%
%ADD36R,0.0356X0.0671*%
%ADD37R,0.0560X0.0324*%
%ADD38R,0.0671X0.0513*%
%ADD39R,0.0513X0.0671*%
%ADD40R,0.0434X0.0395*%
%ADD41R,0.0395X0.0513*%
%ADD42R,0.0867X0.0867*%
%ADD43R,0.0474X0.0631*%
%ADD44R,0.0474X0.0218*%
%ADD45R,0.0218X0.0474*%
%ADD46R,0.1064X0.0867*%
%ADD47R,0.1379X0.0867*%
%ADD48R,0.1300X0.0277*%
%ADD49C,0.0434*%
%ADD50R,0.0552X0.0297*%
%ADD51R,0.0297X0.0434*%
%ADD52R,0.0434X0.0297*%
%ADD53R,0.0395X0.0631*%
%ADD54C,0.0592*%
%ADD55R,0.0749X0.3505*%
%ADD56R,0.0552X0.0198*%
%ADD57R,0.0198X0.0552*%
%ADD58C,0.0730*%
%ADD59C,0.1261*%
D10*
X007862Y007478D03*
X036917Y001966D03*
D11*
X022938Y011911D02*
X022890Y011864D01*
X022796Y011864D01*
X022748Y011911D01*
X022938Y012101D01*
X022938Y011911D01*
X022938Y012101D02*
X022890Y012148D01*
X022796Y012148D01*
X022748Y012101D01*
X022748Y011911D01*
X022632Y011911D02*
X022632Y011864D01*
X022585Y011864D01*
X022585Y011911D01*
X022632Y011911D01*
X022449Y011864D02*
X022259Y011864D01*
X022354Y011864D02*
X022354Y012148D01*
X022259Y012053D01*
X022122Y012053D02*
X022027Y011864D01*
X021933Y012053D01*
D12*
X035736Y002045D03*
D13*
X006012Y004014D03*
X006012Y005195D03*
X006012Y006376D03*
D14*
X007390Y005766D03*
X007390Y004584D03*
D15*
X008177Y004762D03*
X008177Y005943D03*
D16*
X019516Y007852D03*
X019516Y008049D03*
X019516Y008246D03*
X019516Y008443D03*
X019516Y008640D03*
X019516Y008836D03*
X019516Y009033D03*
X019516Y009230D03*
X019516Y009427D03*
X019516Y009624D03*
X019693Y009801D03*
X019890Y009801D03*
X020087Y009801D03*
X020283Y009801D03*
X020480Y009801D03*
X020677Y009801D03*
X020874Y009801D03*
X021071Y009801D03*
X021268Y009801D03*
X021465Y009801D03*
X021642Y009624D03*
X021642Y009427D03*
X021642Y009230D03*
X021642Y009033D03*
X021642Y008836D03*
X021642Y008640D03*
X021642Y008443D03*
X021642Y008246D03*
X021642Y008049D03*
X021642Y007852D03*
X021465Y007675D03*
X021268Y007675D03*
X021071Y007675D03*
X020874Y007675D03*
X020677Y007675D03*
X020480Y007675D03*
X020283Y007675D03*
X020087Y007675D03*
X019890Y007675D03*
X019693Y007675D03*
D17*
X019378Y007852D03*
X019378Y008049D03*
X019378Y008246D03*
X019378Y008443D03*
X019378Y008640D03*
X019378Y008836D03*
X019378Y009033D03*
X019378Y009230D03*
X019378Y009427D03*
X019378Y009624D03*
X021780Y009624D03*
X021780Y009427D03*
X021780Y009230D03*
X021780Y009033D03*
X021780Y008836D03*
X021780Y008640D03*
X021780Y008443D03*
X021780Y008246D03*
X021780Y008049D03*
X021780Y007852D03*
D18*
X021465Y007537D03*
X021268Y007537D03*
X021071Y007537D03*
X020874Y007537D03*
X020677Y007537D03*
X020480Y007537D03*
X020283Y007537D03*
X020087Y007537D03*
X019890Y007537D03*
X019693Y007537D03*
X019693Y009939D03*
X019890Y009939D03*
X020087Y009939D03*
X020283Y009939D03*
X020480Y009939D03*
X020677Y009939D03*
X020874Y009939D03*
X021071Y009939D03*
X021268Y009939D03*
X021465Y009939D03*
D19*
X005933Y002832D03*
X007469Y006415D03*
X008728Y007281D03*
X020067Y008738D03*
X020579Y009250D03*
X021091Y008738D03*
X020579Y008226D03*
X026287Y011061D03*
X030677Y010647D03*
X032665Y008187D03*
X036327Y005077D03*
X030854Y004604D03*
X025618Y003777D03*
X022705Y002675D03*
D20*
X018394Y005510D03*
X018039Y005510D03*
X017055Y009014D03*
X016701Y009014D03*
X021346Y010608D03*
X021701Y010608D03*
X021110Y011258D03*
X020756Y011258D03*
X020283Y011258D03*
X019929Y011258D03*
X025362Y014643D03*
X025717Y014643D03*
X032567Y013384D03*
X032921Y013384D03*
X033748Y015116D03*
X034102Y015116D03*
X033118Y010706D03*
X032764Y010706D03*
X030854Y005143D03*
X030500Y005143D03*
X008669Y012006D03*
X008315Y012006D03*
D21*
X015492Y010203D03*
X015492Y009848D03*
X017665Y008718D03*
X017665Y008364D03*
X021169Y006356D03*
X021169Y006002D03*
X025343Y004584D03*
X025343Y004230D03*
X027783Y004230D03*
X027783Y004584D03*
X027783Y002892D03*
X027783Y002537D03*
X025343Y002537D03*
X025343Y002892D03*
X035067Y007340D03*
X035067Y007695D03*
X031799Y007773D03*
X031799Y007419D03*
X024732Y008620D03*
X024732Y008974D03*
X033512Y013037D03*
X033512Y013392D03*
X030579Y015136D03*
X030579Y015490D03*
X015520Y015018D03*
X015520Y014663D03*
D22*
X022488Y008699D03*
X023000Y008699D03*
X023000Y007951D03*
X022488Y007951D03*
X022488Y007242D03*
X023000Y007242D03*
X021228Y005392D03*
X020717Y005392D03*
X020047Y005392D03*
X019535Y005392D03*
X024220Y004958D03*
X024732Y004958D03*
X024732Y004329D03*
X024220Y004329D03*
X024220Y003266D03*
X024732Y003266D03*
X024732Y002636D03*
X024220Y002636D03*
X035717Y007321D03*
X036228Y007321D03*
X033236Y010037D03*
X032724Y010037D03*
X018315Y007557D03*
X017803Y007557D03*
D23*
X017980Y006829D03*
X017980Y006317D03*
X022547Y010293D03*
X022547Y010805D03*
X033961Y010931D03*
X033961Y011443D03*
X033976Y011986D03*
X033976Y012498D03*
X028413Y004781D03*
X028413Y004269D03*
X028413Y003088D03*
X028413Y002577D03*
D24*
X002350Y010588D03*
D25*
X004457Y008462D03*
X004457Y007399D03*
D26*
X003217Y007951D03*
D27*
X002075Y009525D03*
D28*
X004437Y012695D03*
X004437Y013246D03*
X019594Y004880D03*
X019594Y004329D03*
X021169Y004329D03*
X021169Y004880D03*
X033331Y011974D03*
X033331Y012525D03*
X024555Y014191D03*
X024555Y014742D03*
D29*
X023433Y014663D03*
X023433Y015254D03*
X031563Y005175D03*
X031563Y004584D03*
X031563Y003955D03*
X030657Y003955D03*
X030657Y003364D03*
X031563Y003364D03*
X037744Y003364D03*
X037744Y002773D03*
X009634Y002813D03*
X009634Y002222D03*
D30*
X008748Y002321D03*
X008157Y002321D03*
X025795Y006809D03*
X026386Y006809D03*
X027921Y007242D03*
X028512Y007242D03*
X027961Y006179D03*
X027370Y006179D03*
X026780Y006061D03*
X026189Y006061D03*
X024142Y010116D03*
X023551Y010116D03*
X023551Y010943D03*
X024142Y010943D03*
X026898Y015825D03*
X027488Y015825D03*
D31*
X023925Y009132D03*
X023925Y007951D03*
X022055Y006415D03*
X022055Y005234D03*
D32*
X037350Y012714D03*
X036976Y013502D03*
X037724Y013502D03*
D33*
X037350Y011769D03*
X038453Y011769D03*
X035677Y005785D03*
X034575Y005785D03*
D34*
X014681Y008892D03*
X009504Y009285D03*
D35*
X010685Y003675D03*
X011807Y003675D03*
X012929Y003675D03*
X014051Y003675D03*
D36*
X011780Y007612D03*
X012213Y007769D03*
X012646Y007848D03*
X013079Y007769D03*
X013512Y007848D03*
X013945Y007769D03*
X014378Y007769D03*
X011346Y007769D03*
D37*
X026012Y004978D03*
X027035Y004978D03*
X027035Y004604D03*
X027035Y004230D03*
X026012Y004230D03*
X026024Y003297D03*
X027047Y003297D03*
X027047Y002923D03*
X027047Y002549D03*
X026024Y002549D03*
X034634Y004230D03*
X035657Y004230D03*
X035657Y004604D03*
X035657Y004978D03*
X034634Y004978D03*
D38*
X029752Y003994D03*
X029752Y003344D03*
X010500Y002852D03*
X010500Y002203D03*
X015539Y013226D03*
X015539Y013876D03*
X021327Y014683D03*
X021327Y015332D03*
D39*
X034378Y006651D03*
X035028Y006651D03*
D40*
X038256Y005293D03*
X039043Y004919D03*
X038256Y004545D03*
X036917Y003482D03*
X036130Y003108D03*
X036917Y002734D03*
X008807Y010096D03*
X008020Y010470D03*
X008807Y010844D03*
D41*
X008768Y011455D03*
X008217Y011455D03*
X017646Y009427D03*
X018197Y009427D03*
X022173Y014683D03*
X022724Y014683D03*
X032587Y014958D03*
X033138Y014958D03*
X034437Y015667D03*
X034988Y015667D03*
X037075Y014171D03*
X037626Y014171D03*
X038236Y006021D03*
X038787Y006021D03*
D42*
X037071Y005868D03*
X037071Y004293D03*
X032980Y001970D03*
X031406Y001970D03*
D43*
X034024Y002439D03*
X034772Y002439D03*
X033256Y003187D03*
X033630Y004053D03*
X032882Y004053D03*
X034398Y001573D03*
D44*
X008669Y008167D03*
X007921Y008167D03*
X007921Y008423D03*
X007921Y008679D03*
X008669Y008679D03*
X006346Y007852D03*
X005598Y007852D03*
X005598Y007596D03*
X005598Y007340D03*
X006346Y007340D03*
D45*
X004165Y014309D03*
X003654Y014309D03*
X003654Y015057D03*
X003909Y015057D03*
X004165Y015057D03*
D46*
X039909Y010490D03*
X039909Y006986D03*
D47*
X037587Y006986D03*
X037587Y010490D03*
D48*
X037547Y009368D03*
X037547Y009053D03*
X037547Y008738D03*
X037547Y008423D03*
X037547Y008108D03*
D49*
X038728Y007872D03*
X038728Y009604D03*
D50*
X036209Y008955D03*
X035185Y008955D03*
X035185Y008581D03*
X035185Y008206D03*
X036209Y008206D03*
X036209Y008581D03*
D51*
X030823Y006537D03*
X030508Y006537D03*
X030193Y006537D03*
X029878Y006537D03*
X029563Y006537D03*
X029248Y006537D03*
X029248Y005750D03*
X029563Y005750D03*
X029878Y005750D03*
X030193Y005750D03*
X030508Y005750D03*
X030823Y005750D03*
D52*
X030823Y006143D03*
X029248Y006143D03*
D53*
X033020Y014132D03*
X034201Y014132D03*
X033138Y015706D03*
X031957Y015706D03*
X026287Y015706D03*
X025106Y015706D03*
D54*
X035500Y012990D03*
X035500Y011021D03*
D55*
X006858Y010785D03*
X005953Y010785D03*
D56*
X025677Y010825D03*
X025677Y011021D03*
X025677Y011218D03*
X025677Y011415D03*
X025677Y011612D03*
X025677Y011809D03*
X025677Y012006D03*
X025677Y012203D03*
X025677Y012399D03*
X025677Y012596D03*
X025677Y012793D03*
X025677Y012990D03*
X025677Y013187D03*
X025677Y013384D03*
X025677Y013581D03*
X025677Y013777D03*
X031780Y013777D03*
X031780Y013581D03*
X031780Y013384D03*
X031780Y013187D03*
X031780Y012990D03*
X031780Y012793D03*
X031780Y012596D03*
X031780Y012399D03*
X031780Y012203D03*
X031780Y012006D03*
X031780Y011809D03*
X031780Y011612D03*
X031780Y011415D03*
X031780Y011218D03*
X031780Y011021D03*
X031780Y010825D03*
X031780Y010628D03*
X031780Y010431D03*
X031780Y010234D03*
X031780Y010037D03*
X031780Y009840D03*
X031780Y009643D03*
X031780Y009447D03*
X031780Y009250D03*
X031780Y009053D03*
X025677Y009053D03*
X025677Y009250D03*
X025677Y009447D03*
X025677Y009643D03*
X025677Y009840D03*
X025677Y010037D03*
X025677Y010234D03*
X025677Y010431D03*
X025677Y010628D03*
D57*
X026366Y008364D03*
X026563Y008364D03*
X026760Y008364D03*
X026957Y008364D03*
X027154Y008364D03*
X027350Y008364D03*
X027547Y008364D03*
X027744Y008364D03*
X027941Y008364D03*
X028138Y008364D03*
X028335Y008364D03*
X028531Y008364D03*
X028728Y008364D03*
X028925Y008364D03*
X029122Y008364D03*
X029319Y008364D03*
X029516Y008364D03*
X029713Y008364D03*
X029909Y008364D03*
X030106Y008364D03*
X030303Y008364D03*
X030500Y008364D03*
X030697Y008364D03*
X030894Y008364D03*
X031091Y008364D03*
X031091Y014466D03*
X030894Y014466D03*
X030697Y014466D03*
X030500Y014466D03*
X030303Y014466D03*
X030106Y014466D03*
X029909Y014466D03*
X029713Y014466D03*
X029516Y014466D03*
X029319Y014466D03*
X029122Y014466D03*
X028925Y014466D03*
X028728Y014466D03*
X028531Y014466D03*
X028335Y014466D03*
X028138Y014466D03*
X027941Y014466D03*
X027744Y014466D03*
X027547Y014466D03*
X027350Y014466D03*
X027154Y014466D03*
X026957Y014466D03*
X026760Y014466D03*
X026563Y014466D03*
X026366Y014466D03*
D58*
X014122Y014141D02*
X014122Y013493D01*
X013122Y013493D02*
X013122Y014141D01*
X012122Y014141D02*
X012122Y013493D01*
X011122Y013493D02*
X011122Y014141D01*
X010122Y014141D02*
X010122Y013493D01*
D59*
X002075Y014151D03*
X019791Y015923D03*
X039083Y014191D03*
X039083Y003285D03*
X019791Y001553D03*
X002075Y003325D03*
M02*
