G75*
G70*
%OFA0B0*%
%FSLAX24Y24*%
%IPPOS*%
%LPD*%
%AMOC8*
5,1,8,0,0,1.08239X$1,22.5*
%
%ADD10C,0.0000*%
D10*
X003453Y001848D02*
X003452Y001903D01*
X003448Y001958D01*
X003440Y002013D01*
X003428Y002067D01*
X003413Y002120D01*
X003394Y002171D01*
X003371Y002222D01*
X003346Y002270D01*
X003316Y002317D01*
X003284Y002362D01*
X003249Y002404D01*
X003211Y002444D01*
X003170Y002481D01*
X003127Y002516D01*
X003082Y002547D01*
X003035Y002575D01*
X002985Y002600D01*
X002935Y002622D01*
X002883Y002640D01*
X002829Y002654D01*
X002775Y002665D01*
X002721Y002672D01*
X002666Y002675D01*
X002665Y002675D02*
X001524Y002754D01*
X001524Y002753D02*
X001477Y002758D01*
X001430Y002767D01*
X001385Y002780D01*
X001340Y002796D01*
X001297Y002815D01*
X001256Y002838D01*
X001216Y002864D01*
X001179Y002893D01*
X001144Y002925D01*
X001112Y002960D01*
X001083Y002997D01*
X001057Y003037D01*
X001034Y003078D01*
X001015Y003121D01*
X000999Y003166D01*
X000986Y003211D01*
X000977Y003258D01*
X000972Y003305D01*
X000972Y004722D01*
X000970Y004763D01*
X000965Y004804D01*
X000956Y004844D01*
X000944Y004883D01*
X000928Y004921D01*
X000909Y004958D01*
X000887Y004993D01*
X000862Y005025D01*
X000834Y005056D01*
X000803Y005084D01*
X000771Y005109D01*
X000736Y005131D01*
X000699Y005150D01*
X000661Y005166D01*
X000622Y005178D01*
X000582Y005187D01*
X000541Y005192D01*
X000500Y005194D01*
X000500Y005195D02*
X000500Y012281D01*
X000500Y012282D02*
X000541Y012284D01*
X000582Y012289D01*
X000622Y012298D01*
X000661Y012310D01*
X000699Y012326D01*
X000736Y012345D01*
X000771Y012367D01*
X000803Y012392D01*
X000834Y012420D01*
X000862Y012451D01*
X000887Y012483D01*
X000909Y012518D01*
X000928Y012555D01*
X000944Y012593D01*
X000956Y012632D01*
X000965Y012672D01*
X000970Y012713D01*
X000972Y012754D01*
X000972Y014171D01*
X000977Y014218D01*
X000986Y014265D01*
X000999Y014310D01*
X001015Y014355D01*
X001034Y014398D01*
X001057Y014439D01*
X001083Y014479D01*
X001112Y014516D01*
X001144Y014551D01*
X001179Y014583D01*
X001216Y014612D01*
X001256Y014638D01*
X001297Y014661D01*
X001340Y014680D01*
X001385Y014696D01*
X001430Y014709D01*
X001477Y014718D01*
X001524Y014723D01*
X001524Y014722D02*
X002665Y014801D01*
X002666Y014801D02*
X002721Y014804D01*
X002775Y014811D01*
X002829Y014822D01*
X002883Y014836D01*
X002935Y014854D01*
X002985Y014876D01*
X003035Y014901D01*
X003082Y014929D01*
X003127Y014960D01*
X003170Y014995D01*
X003211Y015032D01*
X003249Y015072D01*
X003284Y015114D01*
X003316Y015159D01*
X003346Y015206D01*
X003371Y015254D01*
X003394Y015305D01*
X003413Y015356D01*
X003428Y015409D01*
X003440Y015463D01*
X003448Y015518D01*
X003452Y015573D01*
X003453Y015628D01*
X017626Y016021D01*
X019949Y016612D01*
X022154Y016612D01*
X022154Y016218D01*
X022156Y016185D01*
X022161Y016153D01*
X022169Y016121D01*
X022181Y016090D01*
X022196Y016061D01*
X022214Y016033D01*
X022235Y016007D01*
X022258Y015984D01*
X022284Y015963D01*
X022312Y015945D01*
X022341Y015930D01*
X022372Y015918D01*
X022404Y015910D01*
X022436Y015905D01*
X022469Y015903D01*
X023492Y015903D01*
X023525Y015905D01*
X023557Y015910D01*
X023589Y015918D01*
X023620Y015930D01*
X023650Y015945D01*
X023677Y015963D01*
X023703Y015984D01*
X023726Y016007D01*
X023747Y016033D01*
X023765Y016061D01*
X023780Y016090D01*
X023792Y016121D01*
X023800Y016153D01*
X023805Y016185D01*
X023807Y016218D01*
X023807Y016612D01*
X029240Y016612D01*
X029240Y016218D01*
X029242Y016185D01*
X029247Y016153D01*
X029255Y016121D01*
X029267Y016090D01*
X029282Y016061D01*
X029300Y016033D01*
X029321Y016007D01*
X029344Y015984D01*
X029370Y015963D01*
X029398Y015945D01*
X029427Y015930D01*
X029458Y015918D01*
X029490Y015910D01*
X029522Y015905D01*
X029555Y015903D01*
X030500Y015903D01*
X030533Y015905D01*
X030565Y015910D01*
X030597Y015918D01*
X030628Y015930D01*
X030658Y015945D01*
X030685Y015963D01*
X030711Y015984D01*
X030734Y016007D01*
X030755Y016033D01*
X030773Y016061D01*
X030788Y016090D01*
X030800Y016121D01*
X030808Y016153D01*
X030813Y016185D01*
X030815Y016218D01*
X030815Y016612D01*
X032980Y016612D01*
X038689Y015825D01*
X039673Y015037D01*
X039870Y011100D01*
X039870Y011101D02*
X039869Y011074D01*
X039872Y011048D01*
X039879Y011022D01*
X039890Y010998D01*
X039904Y010975D01*
X039921Y010955D01*
X039941Y010938D01*
X039964Y010924D01*
X039988Y010913D01*
X040014Y010906D01*
X040040Y010903D01*
X040067Y010904D01*
X040067Y010903D02*
X040461Y010903D01*
X040461Y006573D01*
X040067Y006573D01*
X040067Y006572D02*
X040040Y006573D01*
X040014Y006570D01*
X039988Y006563D01*
X039964Y006552D01*
X039941Y006538D01*
X039921Y006521D01*
X039904Y006501D01*
X039890Y006478D01*
X039879Y006454D01*
X039872Y006428D01*
X039869Y006402D01*
X039870Y006375D01*
X039870Y006376D02*
X039673Y002439D01*
X038689Y001651D01*
X032980Y000864D01*
X030224Y000864D01*
X030224Y001258D01*
X030222Y001291D01*
X030217Y001323D01*
X030209Y001355D01*
X030197Y001386D01*
X030182Y001416D01*
X030164Y001443D01*
X030143Y001469D01*
X030120Y001492D01*
X030094Y001513D01*
X030067Y001531D01*
X030037Y001546D01*
X030006Y001558D01*
X029974Y001566D01*
X029942Y001571D01*
X029909Y001573D01*
X028965Y001573D01*
X028932Y001571D01*
X028900Y001566D01*
X028868Y001558D01*
X028837Y001546D01*
X028808Y001531D01*
X028780Y001513D01*
X028754Y001492D01*
X028731Y001469D01*
X028710Y001443D01*
X028692Y001415D01*
X028677Y001386D01*
X028665Y001355D01*
X028657Y001323D01*
X028652Y001291D01*
X028650Y001258D01*
X028650Y000864D01*
X023807Y000864D01*
X023807Y001258D01*
X023805Y001291D01*
X023800Y001323D01*
X023792Y001355D01*
X023780Y001386D01*
X023765Y001416D01*
X023747Y001443D01*
X023726Y001469D01*
X023703Y001492D01*
X023677Y001513D01*
X023650Y001531D01*
X023620Y001546D01*
X023589Y001558D01*
X023557Y001566D01*
X023525Y001571D01*
X023492Y001573D01*
X022469Y001573D01*
X022436Y001571D01*
X022404Y001566D01*
X022372Y001558D01*
X022341Y001546D01*
X022312Y001531D01*
X022284Y001513D01*
X022258Y001492D01*
X022235Y001469D01*
X022214Y001443D01*
X022196Y001415D01*
X022181Y001386D01*
X022169Y001355D01*
X022161Y001323D01*
X022156Y001291D01*
X022154Y001258D01*
X022154Y000864D01*
X019949Y000864D01*
X017626Y001455D01*
X003453Y001848D01*
X007567Y007478D02*
X007569Y007512D01*
X007575Y007546D01*
X007585Y007579D01*
X007598Y007610D01*
X007616Y007640D01*
X007636Y007668D01*
X007660Y007693D01*
X007686Y007715D01*
X007714Y007733D01*
X007745Y007749D01*
X007777Y007761D01*
X007811Y007769D01*
X007845Y007773D01*
X007879Y007773D01*
X007913Y007769D01*
X007947Y007761D01*
X007979Y007749D01*
X008009Y007733D01*
X008038Y007715D01*
X008064Y007693D01*
X008088Y007668D01*
X008108Y007640D01*
X008126Y007610D01*
X008139Y007579D01*
X008149Y007546D01*
X008155Y007512D01*
X008157Y007478D01*
X008155Y007444D01*
X008149Y007410D01*
X008139Y007377D01*
X008126Y007346D01*
X008108Y007316D01*
X008088Y007288D01*
X008064Y007263D01*
X008038Y007241D01*
X008010Y007223D01*
X007979Y007207D01*
X007947Y007195D01*
X007913Y007187D01*
X007879Y007183D01*
X007845Y007183D01*
X007811Y007187D01*
X007777Y007195D01*
X007745Y007207D01*
X007714Y007223D01*
X007686Y007241D01*
X007660Y007263D01*
X007636Y007288D01*
X007616Y007316D01*
X007598Y007346D01*
X007585Y007377D01*
X007575Y007410D01*
X007569Y007444D01*
X007567Y007478D01*
X001681Y009525D02*
X001683Y009564D01*
X001689Y009603D01*
X001699Y009641D01*
X001712Y009678D01*
X001729Y009713D01*
X001749Y009747D01*
X001773Y009778D01*
X001800Y009807D01*
X001829Y009833D01*
X001861Y009856D01*
X001895Y009876D01*
X001931Y009892D01*
X001968Y009904D01*
X002007Y009913D01*
X002046Y009918D01*
X002085Y009919D01*
X002124Y009916D01*
X002163Y009909D01*
X002200Y009898D01*
X002237Y009884D01*
X002272Y009866D01*
X002305Y009845D01*
X002336Y009820D01*
X002364Y009793D01*
X002389Y009763D01*
X002411Y009730D01*
X002430Y009696D01*
X002445Y009660D01*
X002457Y009622D01*
X002465Y009584D01*
X002469Y009545D01*
X002469Y009505D01*
X002465Y009466D01*
X002457Y009428D01*
X002445Y009390D01*
X002430Y009354D01*
X002411Y009320D01*
X002389Y009287D01*
X002364Y009257D01*
X002336Y009230D01*
X002305Y009205D01*
X002272Y009184D01*
X002237Y009166D01*
X002200Y009152D01*
X002163Y009141D01*
X002124Y009134D01*
X002085Y009131D01*
X002046Y009132D01*
X002007Y009137D01*
X001968Y009146D01*
X001931Y009158D01*
X001895Y009174D01*
X001861Y009194D01*
X001829Y009217D01*
X001800Y009243D01*
X001773Y009272D01*
X001749Y009303D01*
X001729Y009337D01*
X001712Y009372D01*
X001699Y009409D01*
X001689Y009447D01*
X001683Y009486D01*
X001681Y009525D01*
X035323Y002045D02*
X035325Y002085D01*
X035331Y002126D01*
X035341Y002165D01*
X035354Y002203D01*
X035372Y002240D01*
X035393Y002274D01*
X035417Y002307D01*
X035444Y002337D01*
X035474Y002364D01*
X035507Y002388D01*
X035541Y002409D01*
X035578Y002427D01*
X035616Y002440D01*
X035655Y002450D01*
X035696Y002456D01*
X035736Y002458D01*
X035776Y002456D01*
X035817Y002450D01*
X035856Y002440D01*
X035894Y002427D01*
X035931Y002409D01*
X035965Y002388D01*
X035998Y002364D01*
X036028Y002337D01*
X036055Y002307D01*
X036079Y002274D01*
X036100Y002240D01*
X036118Y002203D01*
X036131Y002165D01*
X036141Y002126D01*
X036147Y002085D01*
X036149Y002045D01*
X036147Y002005D01*
X036141Y001964D01*
X036131Y001925D01*
X036118Y001887D01*
X036100Y001850D01*
X036079Y001816D01*
X036055Y001783D01*
X036028Y001753D01*
X035998Y001726D01*
X035965Y001702D01*
X035931Y001681D01*
X035894Y001663D01*
X035856Y001650D01*
X035817Y001640D01*
X035776Y001634D01*
X035736Y001632D01*
X035696Y001634D01*
X035655Y001640D01*
X035616Y001650D01*
X035578Y001663D01*
X035541Y001681D01*
X035507Y001702D01*
X035474Y001726D01*
X035444Y001753D01*
X035417Y001783D01*
X035393Y001816D01*
X035372Y001850D01*
X035354Y001887D01*
X035341Y001925D01*
X035331Y001964D01*
X035325Y002005D01*
X035323Y002045D01*
X036622Y001966D02*
X036624Y002000D01*
X036630Y002034D01*
X036640Y002067D01*
X036653Y002098D01*
X036671Y002128D01*
X036691Y002156D01*
X036715Y002181D01*
X036741Y002203D01*
X036769Y002221D01*
X036800Y002237D01*
X036832Y002249D01*
X036866Y002257D01*
X036900Y002261D01*
X036934Y002261D01*
X036968Y002257D01*
X037002Y002249D01*
X037034Y002237D01*
X037064Y002221D01*
X037093Y002203D01*
X037119Y002181D01*
X037143Y002156D01*
X037163Y002128D01*
X037181Y002098D01*
X037194Y002067D01*
X037204Y002034D01*
X037210Y002000D01*
X037212Y001966D01*
X037210Y001932D01*
X037204Y001898D01*
X037194Y001865D01*
X037181Y001834D01*
X037163Y001804D01*
X037143Y001776D01*
X037119Y001751D01*
X037093Y001729D01*
X037065Y001711D01*
X037034Y001695D01*
X037002Y001683D01*
X036968Y001675D01*
X036934Y001671D01*
X036900Y001671D01*
X036866Y001675D01*
X036832Y001683D01*
X036800Y001695D01*
X036769Y001711D01*
X036741Y001729D01*
X036715Y001751D01*
X036691Y001776D01*
X036671Y001804D01*
X036653Y001834D01*
X036640Y001865D01*
X036630Y001898D01*
X036624Y001932D01*
X036622Y001966D01*
X038551Y007872D02*
X038553Y007898D01*
X038559Y007924D01*
X038569Y007949D01*
X038582Y007972D01*
X038598Y007992D01*
X038618Y008010D01*
X038640Y008025D01*
X038663Y008037D01*
X038689Y008045D01*
X038715Y008049D01*
X038741Y008049D01*
X038767Y008045D01*
X038793Y008037D01*
X038817Y008025D01*
X038838Y008010D01*
X038858Y007992D01*
X038874Y007972D01*
X038887Y007949D01*
X038897Y007924D01*
X038903Y007898D01*
X038905Y007872D01*
X038903Y007846D01*
X038897Y007820D01*
X038887Y007795D01*
X038874Y007772D01*
X038858Y007752D01*
X038838Y007734D01*
X038816Y007719D01*
X038793Y007707D01*
X038767Y007699D01*
X038741Y007695D01*
X038715Y007695D01*
X038689Y007699D01*
X038663Y007707D01*
X038639Y007719D01*
X038618Y007734D01*
X038598Y007752D01*
X038582Y007772D01*
X038569Y007795D01*
X038559Y007820D01*
X038553Y007846D01*
X038551Y007872D01*
X038551Y009604D02*
X038553Y009630D01*
X038559Y009656D01*
X038569Y009681D01*
X038582Y009704D01*
X038598Y009724D01*
X038618Y009742D01*
X038640Y009757D01*
X038663Y009769D01*
X038689Y009777D01*
X038715Y009781D01*
X038741Y009781D01*
X038767Y009777D01*
X038793Y009769D01*
X038817Y009757D01*
X038838Y009742D01*
X038858Y009724D01*
X038874Y009704D01*
X038887Y009681D01*
X038897Y009656D01*
X038903Y009630D01*
X038905Y009604D01*
X038903Y009578D01*
X038897Y009552D01*
X038887Y009527D01*
X038874Y009504D01*
X038858Y009484D01*
X038838Y009466D01*
X038816Y009451D01*
X038793Y009439D01*
X038767Y009431D01*
X038741Y009427D01*
X038715Y009427D01*
X038689Y009431D01*
X038663Y009439D01*
X038639Y009451D01*
X038618Y009466D01*
X038598Y009484D01*
X038582Y009504D01*
X038569Y009527D01*
X038559Y009552D01*
X038553Y009578D01*
X038551Y009604D01*
M02*
