G75*
G70*
%OFA0B0*%
%FSLAX24Y24*%
%IPPOS*%
%LPD*%
%AMOC8*
5,1,8,0,0,1.08239X$1,22.5*
%
%ADD10C,0.0100*%
%ADD11C,0.0070*%
%ADD12C,0.0079*%
%ADD13C,0.0118*%
D10*
X021491Y012257D02*
X021568Y012257D01*
X021644Y012333D01*
X021644Y012717D01*
X021414Y012717D01*
X021337Y012640D01*
X021337Y012487D01*
X021414Y012410D01*
X021644Y012410D01*
X021853Y012487D02*
X021853Y012640D01*
X021930Y012717D01*
X022083Y012717D01*
X022160Y012640D01*
X022160Y012563D01*
X021853Y012563D01*
X021853Y012487D02*
X021930Y012410D01*
X022083Y012410D01*
X022369Y012487D02*
X022369Y012640D01*
X022445Y012717D01*
X022599Y012717D01*
X022676Y012640D01*
X022676Y012563D01*
X022369Y012563D01*
X022369Y012487D02*
X022445Y012410D01*
X022599Y012410D01*
X022884Y012410D02*
X022884Y012870D01*
X022943Y013026D02*
X022712Y013179D01*
X022943Y013333D01*
X022712Y013486D02*
X022712Y013026D01*
X022522Y013026D02*
X022369Y013026D01*
X022445Y013026D02*
X022445Y013486D01*
X022369Y013486D01*
X022160Y013256D02*
X022160Y013026D01*
X021930Y013026D01*
X021853Y013103D01*
X021930Y013179D01*
X022160Y013179D01*
X022160Y013256D02*
X022083Y013333D01*
X021930Y013333D01*
X021644Y013333D02*
X021644Y013103D01*
X021568Y013026D01*
X021491Y013103D01*
X021414Y013026D01*
X021337Y013103D01*
X021337Y013333D01*
X022884Y012563D02*
X023115Y012717D01*
X022884Y012563D02*
X023115Y012410D01*
D11*
X018911Y003598D02*
X018803Y003436D01*
X018803Y003598D02*
X019127Y003598D01*
X019019Y003436D02*
X018911Y003598D01*
X018911Y003744D02*
X018911Y003960D01*
X018857Y003960D02*
X018965Y003960D01*
X019019Y003906D01*
X019019Y003798D01*
X018965Y003744D01*
X018911Y003744D01*
X018803Y003798D02*
X018803Y003906D01*
X018857Y003960D01*
X018911Y004107D02*
X018911Y004323D01*
X018857Y004323D02*
X018965Y004323D01*
X019019Y004269D01*
X019019Y004161D01*
X018965Y004107D01*
X018911Y004107D01*
X018803Y004161D02*
X018803Y004269D01*
X018857Y004323D01*
X018803Y004469D02*
X018803Y004631D01*
X018857Y004685D01*
X018965Y004685D01*
X019019Y004631D01*
X019019Y004469D01*
X018749Y004469D01*
X018695Y004523D01*
X018695Y004577D01*
X018803Y004825D02*
X018911Y004987D01*
X019019Y004825D01*
X019127Y004987D02*
X018803Y004987D01*
X018803Y005121D02*
X018803Y005229D01*
X018803Y005175D02*
X019127Y005175D01*
X019127Y005229D01*
X018965Y005375D02*
X018803Y005375D01*
X018803Y005537D01*
X018857Y005591D01*
X018911Y005537D01*
X018911Y005375D01*
X018965Y005375D02*
X019019Y005429D01*
X019019Y005537D01*
X019019Y005738D02*
X018857Y005738D01*
X018803Y005792D01*
X018857Y005846D01*
X018803Y005900D01*
X018857Y005954D01*
X019019Y005954D01*
X019127Y006100D02*
X018803Y006316D01*
X018857Y006463D02*
X018803Y006517D01*
X018803Y006679D01*
X018695Y006679D02*
X019019Y006679D01*
X019019Y006517D01*
X018965Y006463D01*
X018857Y006463D01*
X019127Y006825D02*
X018803Y007041D01*
X018803Y007188D02*
X018965Y007188D01*
X019019Y007242D01*
X018965Y007296D01*
X018803Y007296D01*
X018803Y007404D02*
X019019Y007404D01*
X019019Y007350D01*
X018965Y007296D01*
X018965Y007551D02*
X018857Y007551D01*
X018803Y007605D01*
X018803Y007713D01*
X018857Y007767D01*
X018965Y007767D01*
X019019Y007713D01*
X019019Y007605D01*
X018965Y007551D01*
X019019Y007913D02*
X019019Y008075D01*
X018965Y008129D01*
X018857Y008129D01*
X018803Y008075D01*
X018803Y007913D01*
X018803Y008256D02*
X018803Y008310D01*
X018857Y008310D01*
X018857Y008256D01*
X018803Y008256D01*
X018911Y008457D02*
X018911Y008673D01*
X018857Y008673D02*
X018965Y008673D01*
X019019Y008619D01*
X019019Y008511D01*
X018965Y008457D01*
X018911Y008457D01*
X018803Y008511D02*
X018803Y008619D01*
X018857Y008673D01*
X018803Y008806D02*
X018803Y008914D01*
X018803Y008860D02*
X019127Y008860D01*
X019127Y008914D01*
X019019Y009061D02*
X018749Y009061D01*
X018695Y009115D01*
X018695Y009169D01*
X018803Y009223D02*
X018803Y009061D01*
X018803Y009223D02*
X018857Y009277D01*
X018965Y009277D01*
X019019Y009223D01*
X019019Y009061D01*
X018965Y009424D02*
X018857Y009424D01*
X018803Y009478D01*
X018803Y009585D01*
X018857Y009639D01*
X018965Y009639D01*
X019019Y009585D01*
X019019Y009478D01*
X018965Y009424D01*
X018965Y009786D02*
X018857Y009786D01*
X018803Y009840D01*
X018803Y009948D01*
X018857Y010002D01*
X018965Y010002D01*
X019019Y009948D01*
X019019Y009840D01*
X018965Y009786D01*
X019019Y010149D02*
X018749Y010149D01*
X018695Y010203D01*
X018695Y010257D01*
X018803Y010311D02*
X018803Y010149D01*
X018803Y010311D02*
X018857Y010365D01*
X018965Y010365D01*
X019019Y010311D01*
X019019Y010149D01*
X018857Y010492D02*
X018803Y010492D01*
X018803Y010546D01*
X018857Y010546D01*
X018857Y010492D01*
X018911Y010692D02*
X018911Y010908D01*
X018857Y010908D02*
X018965Y010908D01*
X019019Y010854D01*
X019019Y010746D01*
X018965Y010692D01*
X018911Y010692D01*
X018803Y010746D02*
X018803Y010854D01*
X018857Y010908D01*
X018803Y011055D02*
X018803Y011217D01*
X018857Y011271D01*
X018965Y011271D01*
X019019Y011217D01*
X019019Y011055D01*
X019127Y011055D02*
X018803Y011055D01*
X018857Y011417D02*
X018965Y011417D01*
X019019Y011471D01*
X019019Y011579D01*
X018965Y011633D01*
X018857Y011633D01*
X018803Y011579D01*
X018803Y011471D01*
X018857Y011417D01*
X018803Y011780D02*
X018803Y011942D01*
X018857Y011996D01*
X018965Y011996D01*
X019019Y011942D01*
X019019Y011780D01*
X019127Y012142D02*
X018803Y012358D01*
X019127Y012505D02*
X018803Y012721D01*
X018803Y012848D02*
X018803Y012902D01*
X018857Y012902D01*
X018857Y012848D01*
X018803Y012848D01*
X018965Y012848D02*
X018965Y012902D01*
X019019Y012902D01*
X019019Y012848D01*
X018965Y012848D01*
X018965Y013049D02*
X018857Y013049D01*
X018803Y013103D01*
X018803Y013265D01*
X018695Y013265D02*
X019019Y013265D01*
X019019Y013103D01*
X018965Y013049D01*
X019019Y013398D02*
X019019Y013506D01*
X019073Y013452D02*
X018857Y013452D01*
X018803Y013398D01*
X018803Y013640D02*
X018857Y013694D01*
X019073Y013694D01*
X019019Y013748D02*
X019019Y013640D01*
X018965Y013895D02*
X018803Y013895D01*
X018965Y013895D02*
X019019Y013949D01*
X019019Y014056D01*
X018965Y014110D01*
X019127Y014110D02*
X018803Y014110D01*
X014555Y012395D02*
X014479Y012471D01*
X014403Y012471D01*
X014250Y012319D01*
X014250Y012242D01*
X014326Y012166D01*
X014403Y012166D01*
X014468Y012024D02*
X014621Y011871D01*
X014724Y011768D02*
X014954Y011997D01*
X014877Y011844D02*
X014877Y011615D01*
X014801Y011844D02*
X015106Y011844D01*
X014697Y012253D02*
X014468Y012024D01*
X014555Y012319D02*
X014555Y012395D01*
X014337Y012613D02*
X014108Y012384D01*
X014108Y012537D01*
X013955Y012537D01*
X014185Y012766D01*
X014043Y012831D02*
X014043Y012908D01*
X013966Y012984D01*
X013890Y012984D01*
X013852Y012946D01*
X013852Y012869D01*
X013928Y012793D01*
X013928Y012717D01*
X013890Y012679D01*
X013814Y012679D01*
X013737Y012755D01*
X013737Y012831D01*
X013353Y012613D02*
X013124Y012384D01*
X013200Y012766D01*
X012971Y012537D01*
X012906Y012679D02*
X012982Y012755D01*
X012906Y012831D01*
X012906Y012679D02*
X012829Y012679D01*
X012753Y012755D01*
X012753Y012831D01*
X012906Y012984D01*
X012982Y012984D01*
X013058Y012908D01*
X013058Y012831D01*
X013457Y012510D02*
X013571Y012395D01*
X013571Y012319D01*
X013418Y012166D01*
X013342Y012166D01*
X013228Y012280D01*
X013457Y012510D01*
X012918Y012044D02*
X012842Y012044D01*
X012689Y011891D01*
X012689Y011815D01*
X012765Y011739D01*
X012842Y011739D01*
X012994Y011891D01*
X012994Y011968D01*
X012918Y012044D01*
X012785Y012177D02*
X012709Y012253D01*
X012747Y012215D02*
X012518Y011986D01*
X012480Y012024D02*
X012556Y011948D01*
X012414Y012166D02*
X012338Y012166D01*
X012224Y012280D01*
X012453Y012510D01*
X012567Y012395D01*
X012567Y012319D01*
X012414Y012166D01*
X012120Y012384D02*
X012349Y012613D01*
X012196Y012766D02*
X011967Y012537D01*
X012120Y012537D01*
X012120Y012384D01*
X011902Y012679D02*
X011825Y012679D01*
X011749Y012755D01*
X011749Y012831D01*
X011864Y012869D02*
X011940Y012793D01*
X011940Y012717D01*
X011902Y012679D01*
X011864Y012869D02*
X011864Y012946D01*
X011902Y012984D01*
X011978Y012984D01*
X012055Y012908D01*
X012055Y012831D01*
X011563Y012395D02*
X011487Y012471D01*
X011411Y012471D01*
X011372Y012433D01*
X011372Y012357D01*
X011449Y012280D01*
X011449Y012204D01*
X011411Y012166D01*
X011334Y012166D01*
X011258Y012242D01*
X011258Y012319D01*
X011116Y012384D02*
X011116Y012537D01*
X011154Y012499D02*
X011040Y012613D01*
X010963Y012537D02*
X011192Y012766D01*
X011307Y012651D01*
X011307Y012575D01*
X011231Y012499D01*
X011154Y012499D01*
X010860Y012640D02*
X011089Y012869D01*
X010936Y013022D02*
X010707Y012793D01*
X010860Y012640D02*
X010936Y013022D01*
X010341Y012613D02*
X010112Y012384D01*
X010112Y012537D01*
X009959Y012537D01*
X010188Y012766D01*
X010047Y012831D02*
X010047Y012908D01*
X009970Y012984D01*
X009894Y012984D01*
X009856Y012946D01*
X009856Y012869D01*
X009932Y012793D01*
X009932Y012717D01*
X009894Y012679D01*
X009818Y012679D01*
X009741Y012755D01*
X009741Y012831D01*
X010254Y012319D02*
X010407Y012471D01*
X010483Y012471D01*
X010559Y012395D01*
X010559Y012319D01*
X010407Y012166D01*
X010330Y012166D01*
X010254Y012242D01*
X010254Y012319D01*
X011563Y012319D02*
X011563Y012395D01*
X011705Y012253D02*
X011858Y012100D01*
X011781Y012177D02*
X011552Y011948D01*
D12*
X011622Y012832D02*
X011622Y014210D01*
X012626Y014210D02*
X012626Y012832D01*
X013610Y012832D02*
X013610Y014210D01*
X010618Y014210D02*
X010618Y012832D01*
X009614Y012832D02*
X009614Y014210D01*
D13*
X019342Y009919D02*
X019344Y009933D01*
X019350Y009947D01*
X019358Y009959D01*
X019370Y009967D01*
X019384Y009973D01*
X019398Y009975D01*
X019412Y009973D01*
X019426Y009967D01*
X019438Y009959D01*
X019446Y009947D01*
X019452Y009933D01*
X019454Y009919D01*
X019452Y009905D01*
X019446Y009891D01*
X019438Y009879D01*
X019426Y009871D01*
X019412Y009865D01*
X019398Y009863D01*
X019384Y009865D01*
X019370Y009871D01*
X019358Y009879D01*
X019350Y009891D01*
X019344Y009905D01*
X019342Y009919D01*
X021091Y011573D02*
X021091Y013699D01*
X023335Y013699D01*
X023335Y011573D01*
X021091Y011573D01*
X025028Y012006D02*
X025303Y012006D01*
X025303Y011021D02*
X025185Y011021D01*
X025303Y010037D02*
X025028Y010037D01*
X025185Y009053D02*
X025303Y009053D01*
X027154Y007990D02*
X027154Y007714D01*
X028138Y007872D02*
X028138Y007990D01*
X029122Y007990D02*
X029122Y007714D01*
X030106Y007872D02*
X030106Y007990D01*
X031091Y007990D02*
X031091Y007714D01*
X032153Y008856D02*
X032155Y008874D01*
X032161Y008890D01*
X032170Y008905D01*
X032183Y008918D01*
X032198Y008927D01*
X032214Y008933D01*
X032232Y008935D01*
X032250Y008933D01*
X032266Y008927D01*
X032281Y008918D01*
X032294Y008905D01*
X032303Y008890D01*
X032309Y008874D01*
X032311Y008856D01*
X032309Y008838D01*
X032303Y008822D01*
X032294Y008807D01*
X032281Y008794D01*
X032266Y008785D01*
X032250Y008779D01*
X032232Y008777D01*
X032214Y008779D01*
X032198Y008785D01*
X032183Y008794D01*
X032170Y008807D01*
X032161Y008822D01*
X032155Y008838D01*
X032153Y008856D01*
X032154Y009840D02*
X032272Y009840D01*
X032154Y010825D02*
X032429Y010825D01*
X032272Y011809D02*
X032154Y011809D01*
X032154Y012793D02*
X032429Y012793D01*
X032272Y013777D02*
X032154Y013777D01*
X030303Y014840D02*
X030303Y015116D01*
X029319Y014958D02*
X029319Y014840D01*
X028335Y014840D02*
X028335Y015116D01*
X027350Y014958D02*
X027350Y014840D01*
X026366Y014840D02*
X026366Y015116D01*
X025303Y012990D02*
X025185Y012990D01*
X028889Y005451D02*
X028891Y005465D01*
X028897Y005479D01*
X028905Y005491D01*
X028917Y005499D01*
X028931Y005505D01*
X028945Y005507D01*
X028959Y005505D01*
X028973Y005499D01*
X028985Y005491D01*
X028993Y005479D01*
X028999Y005465D01*
X029001Y005451D01*
X028999Y005437D01*
X028993Y005423D01*
X028985Y005411D01*
X028973Y005403D01*
X028959Y005397D01*
X028945Y005395D01*
X028931Y005397D01*
X028917Y005403D01*
X028905Y005411D01*
X028897Y005423D01*
X028891Y005437D01*
X028889Y005451D01*
M02*
